<svg xmlns="http://www.w3.org/2000/svg" viewBox="0 0 600 600">
  <defs>
    <linearGradient id="g1" x1="0" y1="0" x2="1" y2="1">
      <stop offset="0" stop-color="#e8f1fb"/>
      <stop offset="1" stop-color="#cfe2f8"/>
    </linearGradient>
    <linearGradient id="g2" x1="0" y1="0" x2="1" y2="0">
      <stop offset="0" stop-color="#4a90e2"/>
      <stop offset="1" stop-color="#2f6db3"/>
    </linearGradient>
  </defs>
  <rect width="600" height="600" fill="url(#g1)"/>
  <g opacity="0.8">
    <path d="M0,400 C120,340 240,460 360,400 C420,370 480,350 600,390 L600,600 L0,600 Z" fill="url(#g2)"/>
    <path d="M0,460 C120,420 240,500 360,460 C420,440 480,430 600,470 L600,600 L0,600 Z" fill="#75aeea" opacity="0.6"/>
    <path d="M0,520 C120,500 240,560 360,530 C420,520 480,520 600,540 L600,600 L0,600 Z" fill="#a9c9f2" opacity="0.6"/>
  </g>
  <g transform="translate(300,210)">
    <circle r="90" fill="#ffffff" opacity="0.9"/>
    <g fill="none" stroke="#4a90e2" stroke-width="6">
      <circle r="28"/>
      <circle r="46" opacity="0.8"/>
      <circle r="66" opacity="0.6"/>
    </g>
  </g>
</svg>
